<mxfile host="app.diagrams.net" modified="2023-04-03T16:03:09.821Z" agent="Mozilla/5.0 (Windows NT 10.0; Win64; x64) AppleWebKit/537.36 (KHTML, like Gecko) Chrome/111.0.0.0 Safari/537.36 Edg/111.0.1661.62" etag="QyJIZRfL6rQv5Zf3zLGb" version="21.1.4" type="device">
  <diagram name="Page-1" id="eCIVcwBewH7rQWhcbtld">
    <mxGraphModel dx="1221" dy="707" grid="1" gridSize="10" guides="1" tooltips="1" connect="1" arrows="1" fold="1" page="1" pageScale="1" pageWidth="850" pageHeight="1100" math="0" shadow="0">
      <root>
        <mxCell id="0" />
        <mxCell id="1" parent="0" />
        <mxCell id="Nwwftyl2XF7w5lzSLtw2-3" value="" style="rounded=0;whiteSpace=wrap;html=1;" parent="1" vertex="1">
          <mxGeometry x="160" y="278" width="440" height="520" as="geometry" />
        </mxCell>
        <mxCell id="y2Lr8NYa4whQz5r4eRsE-1" value="CUSTOMER" style="shape=umlActor;verticalLabelPosition=bottom;verticalAlign=top;html=1;outlineConnect=0;" parent="1" vertex="1">
          <mxGeometry x="49" y="539" width="30" height="60" as="geometry" />
        </mxCell>
        <mxCell id="y2Lr8NYa4whQz5r4eRsE-2" value="Rate The Product" style="ellipse;whiteSpace=wrap;html=1;" parent="1" vertex="1">
          <mxGeometry x="320" y="319" width="120" height="80" as="geometry" />
        </mxCell>
        <mxCell id="y2Lr8NYa4whQz5r4eRsE-3" value="Rate Our Website" style="ellipse;whiteSpace=wrap;html=1;" parent="1" vertex="1">
          <mxGeometry x="320" y="440" width="120" height="80" as="geometry" />
        </mxCell>
        <mxCell id="y2Lr8NYa4whQz5r4eRsE-4" value="Help Us Improve" style="ellipse;whiteSpace=wrap;html=1;" parent="1" vertex="1">
          <mxGeometry x="320" y="560" width="120" height="80" as="geometry" />
        </mxCell>
        <mxCell id="y2Lr8NYa4whQz5r4eRsE-5" value="Rate The Delivery Guy" style="ellipse;whiteSpace=wrap;html=1;" parent="1" vertex="1">
          <mxGeometry x="320" y="680" width="120" height="80" as="geometry" />
        </mxCell>
        <mxCell id="7R3LTqGWQ0_HXgY58YQe-1" style="edgeStyle=orthogonalEdgeStyle;rounded=0;orthogonalLoop=1;jettySize=auto;html=1;exitX=0.5;exitY=1;exitDx=0;exitDy=0;" parent="1" edge="1">
          <mxGeometry relative="1" as="geometry">
            <mxPoint x="400" y="840" as="sourcePoint" />
            <mxPoint x="400" y="840" as="targetPoint" />
          </mxGeometry>
        </mxCell>
        <mxCell id="Nwwftyl2XF7w5lzSLtw2-2" value="&lt;font face=&quot;Comic Sans MS&quot; style=&quot;font-size: 38px;&quot;&gt;&lt;b&gt;Feedback Use-Case Diagram&lt;/b&gt;&lt;/font&gt;" style="rounded=0;whiteSpace=wrap;html=1;align=center;" parent="1" vertex="1">
          <mxGeometry x="90" y="183" width="550" height="65" as="geometry" />
        </mxCell>
        <mxCell id="jNt4iIyCybTWgl42LlOg-3" value="Database" style="shape=umlActor;verticalLabelPosition=bottom;verticalAlign=top;html=1;outlineConnect=0;" parent="1" vertex="1">
          <mxGeometry x="680" y="539" width="30" height="60" as="geometry" />
        </mxCell>
        <mxCell id="jNt4iIyCybTWgl42LlOg-6" value="&lt;font style=&quot;font-size: 14px;&quot;&gt;System&lt;/font&gt;" style="text;html=1;strokeColor=none;fillColor=none;align=center;verticalAlign=middle;whiteSpace=wrap;rounded=0;" parent="1" vertex="1">
          <mxGeometry x="540" y="278" width="60" height="30" as="geometry" />
        </mxCell>
        <mxCell id="ZypxPsb6smMh3vGl9zvl-1" value="" style="endArrow=none;html=1;rounded=0;" parent="1" edge="1">
          <mxGeometry width="50" height="50" relative="1" as="geometry">
            <mxPoint x="120" y="560" as="sourcePoint" />
            <mxPoint x="200" y="560" as="targetPoint" />
          </mxGeometry>
        </mxCell>
        <mxCell id="ZypxPsb6smMh3vGl9zvl-2" value="" style="endArrow=none;html=1;rounded=0;" parent="1" edge="1">
          <mxGeometry width="50" height="50" relative="1" as="geometry">
            <mxPoint x="200" y="720" as="sourcePoint" />
            <mxPoint x="200" y="360" as="targetPoint" />
          </mxGeometry>
        </mxCell>
        <mxCell id="ZypxPsb6smMh3vGl9zvl-3" value="" style="endArrow=none;html=1;rounded=0;entryX=0;entryY=0.5;entryDx=0;entryDy=0;" parent="1" target="y2Lr8NYa4whQz5r4eRsE-2" edge="1">
          <mxGeometry width="50" height="50" relative="1" as="geometry">
            <mxPoint x="200" y="360" as="sourcePoint" />
            <mxPoint x="370" y="480" as="targetPoint" />
          </mxGeometry>
        </mxCell>
        <mxCell id="ZypxPsb6smMh3vGl9zvl-4" value="" style="endArrow=none;html=1;rounded=0;entryX=0;entryY=0.5;entryDx=0;entryDy=0;" parent="1" edge="1">
          <mxGeometry width="50" height="50" relative="1" as="geometry">
            <mxPoint x="200" y="480" as="sourcePoint" />
            <mxPoint x="320" y="479" as="targetPoint" />
          </mxGeometry>
        </mxCell>
        <mxCell id="ZypxPsb6smMh3vGl9zvl-5" value="" style="endArrow=none;html=1;rounded=0;entryX=0;entryY=0.5;entryDx=0;entryDy=0;" parent="1" edge="1">
          <mxGeometry width="50" height="50" relative="1" as="geometry">
            <mxPoint x="200" y="600" as="sourcePoint" />
            <mxPoint x="320" y="599" as="targetPoint" />
          </mxGeometry>
        </mxCell>
        <mxCell id="ZypxPsb6smMh3vGl9zvl-6" value="" style="endArrow=none;html=1;rounded=0;entryX=0;entryY=0.5;entryDx=0;entryDy=0;" parent="1" edge="1">
          <mxGeometry width="50" height="50" relative="1" as="geometry">
            <mxPoint x="200" y="720" as="sourcePoint" />
            <mxPoint x="320" y="719" as="targetPoint" />
          </mxGeometry>
        </mxCell>
        <mxCell id="ZypxPsb6smMh3vGl9zvl-8" value="" style="endArrow=none;html=1;rounded=0;entryX=0;entryY=0.5;entryDx=0;entryDy=0;" parent="1" edge="1">
          <mxGeometry width="50" height="50" relative="1" as="geometry">
            <mxPoint x="440" y="360" as="sourcePoint" />
            <mxPoint x="560.0000000000027" y="359" as="targetPoint" />
          </mxGeometry>
        </mxCell>
        <mxCell id="ZypxPsb6smMh3vGl9zvl-9" value="" style="endArrow=none;html=1;rounded=0;entryX=0;entryY=0.5;entryDx=0;entryDy=0;" parent="1" edge="1">
          <mxGeometry width="50" height="50" relative="1" as="geometry">
            <mxPoint x="440" y="480" as="sourcePoint" />
            <mxPoint x="560" y="479" as="targetPoint" />
          </mxGeometry>
        </mxCell>
        <mxCell id="ZypxPsb6smMh3vGl9zvl-10" value="" style="endArrow=none;html=1;rounded=0;entryX=0;entryY=0.5;entryDx=0;entryDy=0;" parent="1" edge="1">
          <mxGeometry width="50" height="50" relative="1" as="geometry">
            <mxPoint x="440" y="600" as="sourcePoint" />
            <mxPoint x="560" y="599" as="targetPoint" />
          </mxGeometry>
        </mxCell>
        <mxCell id="ZypxPsb6smMh3vGl9zvl-11" value="" style="endArrow=none;html=1;rounded=0;entryX=0;entryY=0.5;entryDx=0;entryDy=0;" parent="1" edge="1">
          <mxGeometry width="50" height="50" relative="1" as="geometry">
            <mxPoint x="440" y="720" as="sourcePoint" />
            <mxPoint x="560" y="719" as="targetPoint" />
          </mxGeometry>
        </mxCell>
        <mxCell id="ZypxPsb6smMh3vGl9zvl-12" value="" style="endArrow=none;html=1;rounded=0;" parent="1" edge="1">
          <mxGeometry width="50" height="50" relative="1" as="geometry">
            <mxPoint x="560" y="720" as="sourcePoint" />
            <mxPoint x="560" y="360" as="targetPoint" />
          </mxGeometry>
        </mxCell>
        <mxCell id="ZypxPsb6smMh3vGl9zvl-14" value="" style="endArrow=none;html=1;rounded=0;" parent="1" edge="1">
          <mxGeometry width="50" height="50" relative="1" as="geometry">
            <mxPoint x="560" y="560" as="sourcePoint" />
            <mxPoint x="640" y="560" as="targetPoint" />
          </mxGeometry>
        </mxCell>
      </root>
    </mxGraphModel>
  </diagram>
</mxfile>
